<?xml version="1.0" standalone="no"?>
<!DOCTYPE svg PUBLIC "-//W3C//DTD SVG 1.1//EN" "http://www.w3.org/Graphics/SVG/1.1/DTD/svg11.dtd">
<svg xmlns="http://www.w3.org/2000/svg">
<metadata>Generated by Fontastic.me</metadata>
<defs>
<font id="system-requirements-check" horiz-adv-x="512">
<font-face font-family="system-requirements-check" units-per-em="512" ascent="480" descent="-32"/>
<missing-glyph horiz-adv-x="512" />

<glyph glyph-name="chrome" unicode="&#57344;" d="M129 289l-73 127c47 58 119 96 200 96 94 0 176-50 220-126l-209 0c-3 1-7 1-11 1-61 0-112-42-127-98z m219 60l146 0c12-28 18-60 18-93 0-140-113-254-253-256l105 181c14 22 23 47 23 75 0 37-15 70-39 93z m-185-93c0 51 42 93 93 93 51 0 93-42 93-93 0-51-42-93-93-93-51 0-93 42-93 93z m128-126l-73-127c-123 18-218 125-218 253 0 46 12 88 33 126l104-182c21-44 67-75 119-75 12 0 24 2 35 5z"/>
<glyph glyph-name="danger" unicode="&#57345;" d="M478 199l-44 40c-13 11-13 30 0 41l44 39c13 12 10 22-7 24l-59 6c-17 1-26 16-20 32l31 87c6 16-1 22-16 13l-69-43c-14-9-33-4-42 11l-25 45c-8 15-22 15-31 0l-23-41c-8-15-28-21-44-14l-41 19c-15 7-27-1-26-18l2-42c1-17-12-35-28-39l-40-11c-16-4-19-17-6-29l44-39c13-11 13-30 0-41l-44-40c-13-11-10-22 7-24l54-7c17-2 26-17 21-33l-28-84c-5-16 2-23 17-14l63 36c15 9 35 4 45-10l26-39c9-15 24-14 31 1l23 45c8 15 27 21 43 14l44-23c15-7 27 1 26 18l-2 41c-1 18 12 35 28 40l40 10c16 5 19 18 6 29z m-196-47l-52 0 0 54 52 0z m0 82l-52 0 0 133 52 0z"/>
<glyph glyph-name="display" unicode="&#57346;" d="M0 480l0-320 512 0 0 320z m480-288l-448 0 0 256 448 0z m-144-64l-160 0-16-64-32-32 256 0-32 32z"/>
<glyph glyph-name="link" unicode="&#57347;" d="M491 357l-70 70c-12 12-29 18-45 18-16 0-33-6-45-18l-134-134c-25-25-25-65 0-90l3-3 32 32-3 3c-5 4-5 10-5 13 0 3 0 9 5 13l134 134c4 5 10 5 13 5 3 0 9 0 13-5l70-70c5-4 5-10 5-13 0-3 0-9-5-13l-134-134c-4-5-10-5-13-5-3 0-9 0-13 5l-3 3-32-32 3-3c12-12 29-18 45-18 16 0 33 6 45 18l134 134c25 25 25 65 0 90z m-176-48l-3 3-32-32 3-3c5-4 5-10 5-13 0-3 0-9-5-13l-134-134c-4-5-10-5-13-5-3 0-9 0-13 5l-70 70c-7 7-7 19 0 26l134 134c4 5 10 5 13 5 3 0 9 0 13-5l3-3 32 32-3 3c-12 12-29 18-45 18-16 0-33-6-45-18l-134-134c-25-25-25-65 0-90l70-70c12-12 29-18 45-18 16 0 33 6 45 18l134 134c25 25 25 65 0 90z"/>
<glyph glyph-name="ip" unicode="&#57348;" d="M256 512c-141 0-256-115-256-256 0-141 115-256 256-256 141 0 256 115 256 256 0 141-115 256-256 256z m0-480c-31 0-61 7-89 18l117 131c3 3 4 7 4 11l0 48c0 9-7 16-16 16-56 0-116 59-117 59-3 3-7 5-11 5l-64 0c-9 0-16-7-16-16l0-96c0-6 3-12 9-14l55-28 0-94c-58 41-96 108-96 184 0 34 8 67 22 96l58 0c4 0 8 2 11 5l64 64c3 3 5 7 5 11l0 39c20 6 42 9 64 9 35 0 69-8 98-23-2-1-4-3-6-5-18-18-28-42-28-68 0-26 10-50 28-68 18-18 43-28 68-28 2 0 3 0 5 0 7-26 19-93-5-186 0-1 0-2 0-3-41-41-97-67-160-67z"/>
<glyph glyph-name="edge-legacy" unicode="&#57350;" d="M8 285c15 118 96 225 240 227 88-2 160-41 202-117 22-39 29-81 30-126l0-54-321 0c1-133 195-128 278-70l0-108c-49-29-159-55-245-21-73 27-125 103-125 177-2 95 48 158 125 194-17-20-29-42-36-81l182 0c0 0 10 108-103 108-107-4-184-66-227-129z"/>
<glyph glyph-name="checkmark" unicode="&#57351;" d="M256 512c-141 0-256-115-256-256 0-141 115-256 256-256 141 0 256 115 256 256 0 141-115 256-256 256z m-48-416l-106 138 47 49 59-75 185 151 23-23z"/>
<glyph glyph-name="safari" unicode="&#57353;" d="M256 512c-141 0-256-115-256-256 0-141 115-256 256-256 141 0 256 115 256 256 0 141-115 256-256 256z m223-236l0 5c0-2 0-4 0-5z m-35 102l-3 5c1-2 2-4 3-5z m-14 19l-2 2c1-1 2-1 2-2z m-31 31l-2 2c1 0 1-1 2-2z m-16 13l-5 3c1-1 3-2 5-3z m-102 38l-5 0c1 0 3 0 5 0z m-45 0l-5 0c2 0 4 0 5 0z m-102-35l-5-3c2 1 4 2 5 3z m-19-14l-2-2c1 1 1 2 2 2z m-31-31l-2-2c0 0 1 1 2 2z m-13-16l-3-5c1 1 2 3 3 5z m-38-102l0-6c0 2 0 4 0 6z m0-45l0-5c0 2 0 4 0 5z m35-102l3-5c-1 2-2 4-3 5z m4-6l40 27-4 7-40-27c-18 28-30 60-34 95l24 2-1 8-24-2c-1 5-1 9-1 14l48 0 0 8-48 0c0 5 0 9 1 14l24-2 1 8-24 2c4 35 16 67 34 95l40-26 4 6-40 27c3 4 5 7 8 11l19-15 5 6-19 15c3 4 7 7 10 11l34-34 5 5-33 34c3 3 6 7 10 10l15-19 6 5-15 19c4 3 7 5 11 8l27-40 7 5-27 39c28 19 60 30 95 34l3-23 8 0-3 24c5 1 9 1 14 1l0-48 8 0 0 48c5 0 9 0 14-1l-2-24 8 0 2 23c35-4 67-16 95-34l-26-40 6-4 27 40c4-3 8-5 11-8l-15-19 6-5 15 19c4-3 7-7 11-10l-13-12-175-117-117-175-12-13c-3 4-7 7-10 11l19 15-5 6-19-15c-3 4-5 7-8 11z m12-15c-1 1-2 1-2 2z m29-29l2-2c-1 0-1 1-2 2z m16-13l5-3c-1 1-3 2-5 3z m102-38l6 0c-2 0-4 0-6 0z m45 0l5 0c-2 0-4 0-5 0z m102 35l5 3c-2-1-4-2-5-3z m19 14l2 2c0-1-1-2-2-2z m17 15l1 1c0 0-1-1-1-1z m14 16l2 2c0-1-1-1-2-2z m4 4l-19 15-5-6 19-15c-3-4-7-7-10-11l-34 34-5-5 34-34c-4-4-7-7-11-10l-15 19-6-5 15-19c-4-3-7-5-11-8l-27 40-7-5 27-40c-28-18-60-30-95-34l-2 24-8 0 2-24c-5-1-9-1-14-1l0 48-8 0 0-48c-5 0-9 0-14 1l2 24-8 0-2-24c-35 4-67 16-95 35l26 39-6 5-27-40c-4 3-7 5-11 8l15 19-6 5-15-19c-4 3-7 7-11 10l13 12 175 117 117 175 12 12c3-3 7-6 10-10l-19-15 5-6 19 15c3-4 5-7 8-11l-40-27 5-7 40 27c18-28 30-60 34-95l-24-3 0-8 24 3c1-5 1-9 1-14l-48 0 0-8 48 0c0-5 0-9-1-14l-24 2 0-8 24-2c-4-35-16-67-35-95l-39 26-5-6 40-27c-3-4-5-7-8-11z m47 119c0-1 0-3 0-5z m-35-102c-1-1-2-3-3-5z m-228 342l10-47-8-1-10 47z m80-440l-10 47 8 1 10-47z m-101 436l7-23-8-3-7 23z m122-431l-7 23 8 2 7-23z m-143 423l18-44-7-3-18 44z m164-416l-18 44 7 3 18-44z m-191 404l7 3 11-21-7-3z m218-392l-7-3-11 21 7 4z m-305 305l21-11-3-7-21 11z m392-218l-22 11 4 7 21-11z m-360 173l-44 18 3 7 44-18z m328-128l45-18-4-7-44 18z m-377 133l23-7-3-8-23 7z m426-138l-23 7 3 8 22-7z m-432 117l47-10-1-8-48 10z m438-96l-47 10 1 8 47-10z m-440 8l48 10 1-8-47-10z m441 80l-47-10-1 8 47 10z m-436-101l23 7 3-8-23-7z m431 122l-22-7-3 8 23 7z m-420-150l-3 7 44 18 3-7z m410 178l3-7-44-18-3 7z m-401-198l-3 7 21 11 4-7z m392 218l4-7-22-11-3 7z m-298-308l-7 3 11 22 7-4z m204 398l7-3-11-21-7 3z m-191-404l18 44 7-3-18-44z m178 410l-18-44-7 3 18 45z m-150-421l-8 3 7 23 8-3z m122 432l8-3-7-23-8 3z m-101-436l-8 1 10 47 8-1z m80 441l8-2-10-47-8 1z"/>
<glyph glyph-name="opera" unicode="&#57354;" d="M512 256c0-76-33-144-85-191-66-32-127-9-147 5 64 14 113 92 113 186 0 94-49 172-113 186 20 14 81 37 147 5 52-47 85-115 85-191z m-340 144c-29-33-47-83-48-138 0 0 0-12 0-12 1-56 20-105 48-138 37-48 91-78 152-78 38 0 73 11 103 31-46-40-105-65-171-65-4 0-8 0-12 0-136 7-244 119-244 256 0 141 115 256 256 256 0 0 1 0 1 0 65 0 125-25 170-65-30 20-65 31-103 31-61 0-115-30-152-78z"/>
<glyph glyph-name="linux" unicode="&#57355;" d="M284 144c-41-20-79-19-105-17-30 2-55 10-66 17-6 5-15 3-20-3-4-7-3-16 4-21 17-11 48-20 80-22 5-1 11-1 18-1 28 0 63 3 101 20 7 4 11 12 7 19-3 8-12 11-19 8z m161 21c2 126 15 365-227 346-239-19-175-272-179-356-3-45-18-99-39-155l65 0c6 24 11 47 13 69 4-3 8-5 13-8 7-4 13-10 20-16 15-14 32-30 67-32 2 0 4 0 6 0 35 0 58 15 77 27 9 6 17 11 25 14 21 6 39 17 53 30 2 2 4 5 6 7 7-28 18-60 29-91l138 0c-33 51-67 101-67 165z m-383 69c0 0 0 0 0 0-2 41 17 76 44 77 27 2 50-30 53-72 0 0 0 0 0 0 0-2 0-4 0-6-9-2-16-5-23-9 0 0 0 1 0 1 0 0 0 0 0 0-2 23-15 41-28 39-13-1-22-21-20-45 0 0 0 0 0 0 1-10 4-19 8-26-1-1-4-3-7-5-2-2-5-4-9-7-10 13-17 32-18 53z m271-102c-1-22-30-42-56-51l0 0c-11-3-21-9-31-16-18-11-36-23-62-23-1 0-3 0-5 0-24 2-35 12-49 25-7 7-15 14-25 19l0 0c-21 13-35 28-35 41-1 6 2 12 8 16 14 10 22 17 28 21 7 5 9 6 10 8 1 1 3 2 4 3 12 12 32 32 64 32 19 0 40-8 63-22 11-7 20-10 32-14 8-3 17-6 29-12l0 0c12-4 25-13 25-27z m-7 51c-2 1-4 2-7 3-11 5-19 8-27 11 4 8 7 18 7 28 0 0 0 0 0 0 1 27-13 48-30 48-16 0-30-21-31-47 0 0 0 0 0 0 0-1 0-2 0-3-10 5-21 8-31 10 0 1 0 2 0 3 0 0 0 0 0 0-1 48 29 88 66 89 37 1 68-37 69-85 0 0 0 0 0 0 0-22-6-41-16-57z"/>
<glyph glyph-name="apple" unicode="&#57356;" d="M396 240c-1 65 53 96 55 97-30 44-77 50-94 51-39 4-77-23-98-23-20 0-51 23-84 22-44-1-84-25-106-64-45-79-12-195 32-258 22-31 48-66 81-65 33 1 45 21 84 21 39 0 50-21 85-20 35 0 57 31 78 63 25 36 35 71 35 72 0 1-68 27-68 104z m-65 190c18 22 30 52 27 82-26-1-57-17-75-39-17-19-32-50-28-79 29-2 58 15 76 36z"/>
<glyph glyph-name="java" unicode="&#57357;" d="M199 171c2 0 3 0 5 0 12 3-2-6-4-9 32-9 66-6 99 0 11-4 22-11 34-15-35-17-75-22-113-17-15 3-34 5-43 19-5 13 12 20 22 22z m-10 47l0 0c4-1 19 7 8-2-1-3-13-9-7-12 41-9 84-5 124 3 8-8 18-11 28-15-45-14-94-20-142-14-13 3-30 5-36 18-2 13 15 18 25 22z m161 197l0 0c4-1 17 3 7-4-24-18-55-31-71-58-8-20 15-34 21-52 7-22-13-42-30-53-7-5-22-7-9 4 12 9 16 28 5 39-17 18-28 46-13 69 20 30 56 44 90 55z m-195-275l0 0c11 2 18-5 26-11-17 2-35 0-50-10 5-4 14-5 21-7 64-10 130-7 194 1 12 4 29 3 38 13 0 5-10 12-7 13 10-1 25-9 19-20-15-16-38-18-58-23-75-14-153-12-228 3-9 1-19 10-12 19 15 15 37 20 57 22z m48 127l0 0c5 0 11-2 16-3-13-8-28-9-42-15-1-1-12-4-6-6 38-7 77-2 115 0 24 1 47 8 70 7-6-6-13-9-21-13-18-10-40-10-60-13-44-3-90-6-133 5-8 1-17 10-10 17 21 13 46 19 71 21z m172 4c23 2 46-18 40-42-9-29-41-42-68-50-14-5-19-5-5 7 17 12 39 22 47 42 8 17-12 35-29 28-5 0-21-11-15-3 5 12 17 18 30 18z m-81 226l0 0c-1 5-2 10-3 15 6-7 13-13 17-21 14-29-2-62-22-84-20-23-53-37-60-70-3-33 32-53 38-84-13 9-25 21-37 33-16 18-37 42-28 69 14 31 47 47 70 70 21 17 34 45 25 72z m115-384l0 0c2 2 8 17 7 5 4-19-16-31-31-36-55-17-113-17-169-14-25 3-54 1-73 20 69-9 140-11 208 3 20 5 43 7 58 22z"/>
<glyph glyph-name="javascript" unicode="&#57358;" d="M349 283c6 1 7 1 13 0 12-1 22-4 31-9 4-4 11-11 15-17 2-2 3-5 3-5 0 0-29-19-30-19 0 0-1 1-2 3-1 1-4 4-5 6-5 5-10 7-18 7-7 0-11-2-15-6-3-3-4-6-4-10-1-5 1-10 4-13 4-4 9-7 26-14 22-10 33-16 41-25 5-4 7-8 10-13 3-8 5-16 5-26 0-15-5-28-15-37-9-10-21-15-38-17-6-1-19-1-25 0-26 3-45 15-57 36-2 2-2 3-2 4 1 0 31 18 32 18 0 0 1-2 2-4 10-14 21-20 37-20 9 0 17 3 21 7 2 2 3 4 4 5 3 6 2 15-3 20-4 4-10 8-27 15-12 5-19 9-25 12-20 12-29 28-29 50 0 15 4 27 14 36 10 10 22 15 37 16z m-124-72l0 70 39 0 0-71c0-47 0-72 0-74-3-22-13-37-31-44-15-6-35-7-51-1-15 5-27 15-35 30l-1 2 16 10c9 5 16 9 16 9 0 0 1-1 2-3 8-12 14-17 24-17 7 0 12 2 15 5 2 3 4 5 5 10l1 3z m-135 259c-27 0-48-21-48-48l0-332c0-27 21-48 48-48l332 0c27 0 48 21 48 48l0 332c0 27-21 48-48 48z m0-25l332 0c12 0 22-10 22-23l0-332c0-13-10-23-22-23l-332 0c-13 0-23 10-23 23l0 332c0 13 10 23 23 23z"/>
<glyph glyph-name="android" unicode="&#57359;" d="M432 352c-18 0-32-14-32-32l0-128c0-18 14-32 32-32 18 0 32 14 32 32l0 128c0 18-14 32-32 32z m-384 0c-18 0-32-14-32-32l0-128c0-18 14-32 32-32 18 0 32 14 32 32l0 128c0 18-14 32-32 32z m48-208c0-27 21-48 48-48l16 0 0-64c0-18 14-32 32-32 18 0 32 14 32 32l0 64 32 0 0-64c0-18 14-32 32-32 18 0 32 14 32 32l0 64 16 0c27 0 48 21 48 48l0 176-288 0z m203 323l21 39c1 2 0 5-2 6-2 1-5 0-6-2l-20-40c-16 7-34 10-52 10-18 0-36-3-52-10l-20 40c-1 2-4 3-6 2-2-1-3-4-2-6l21-39c-46-20-78-64-84-115l286 0c-6 51-38 95-84 115z m-123-90c-13 0-23 10-23 23 0 13 10 23 23 23 13 0 23-10 23-23 0-13-10-23-23-23z m128 0c-13 0-23 10-23 23 0 13 10 23 23 23 13 0 23-10 23-23 0-13-10-23-23-23z"/>
<glyph glyph-name="windows-old" unicode="&#57360;" d="M206 256c-24 12-47 19-69 19-3 0-6-1-9-1-28-2-53-10-70-15-4-2-8-4-13-5l-45-156c31 11 58 17 83 17 41 0 70-15 94-31 12 39 39 133 47 161-6 4-12 8-18 11z m58-40l-45-157c13-7 59-32 93-32 28 0 59 8 95 22l44 151c-30-9-58-14-84-14-48 0-82 16-103 30z m-118 112c39-1 67-16 91-31l46 159c-9 6-35 20-53 24-13 3-25 5-39 5-26-1-54-7-86-20l-45-156c33 13 61 19 86 19 0 0 0 0 0 0z m366 85c-29-11-58-17-86-17-45 0-79 16-101 31l-46-159c31-20 64-30 99-30 29 0 58 7 88 20l0 1 2 1z"/>
<glyph glyph-name="windows-new" unicode="&#57361;" d="M0 256l0 156 192 26 0-182z m224 187l256 37 0-224-256 0z m256-219l0-224-256 36 0 188z m-288-184l-192 26 0 158 192 0z"/>
<glyph glyph-name="warning" unicode="&#57362;" d="M505 54l-219 436c-8 15-19 22-30 22-11 0-22-7-30-22l-219-436c-17-30-2-54 32-54l434 0c34 0 49 24 32 54z m-249 10c-18 0-32 14-32 32 0 18 14 32 32 32 18 0 32-14 32-32 0-18-14-32-32-32z m22 96l-44 0-10 128c0 18 14 32 32 32 18 0 32-14 32-32z"/>
<glyph glyph-name="firefox" unicode="&#57363;" d="M511 345l-6-38c0 0-8 70-19 97-15 40-23 40-23 40 11-27 9-42 9-42 0 0-19 51-69 68-55 18-85 13-88 12-1 0-1 0-2 0 0 0 1 0 1 0 0 0 0 0 0 0 0 0 61-11 72-26 0 0-26 0-51-7-2 0 94-12 114-108 0 0-11 22-24 26 9-26 7-76-1-100-1-3-3 14-19 21 6-37 0-95-25-112-2-1 16 58 3 35-71-109-156-50-193-24 19-4 56 0 72 13 0 0 0 0 0 0 18 12 29 21 38 19 9-3 16 7 8 15-7 9-25 20-49 14-17-4-38-23-70-4-25 14-27 27-27 35 0 3 1 6 2 8 3 8 11 11 16 12 8-1 15-3 23-7 0 2 0 5 0 9 0 2 0 6-1 11-1 5-2 10-4 15 0 0 0 0 0 0 0 0 0 0 0 0 1 0 1 0 1 0 0 0 0 0 0 0 0 1 0 1 0 1 0 2 6 6 13 11 6 5 13 9 19 13 5 3 8 5 9 6 1 0 1 0 1 1 0 0 1 0 1 0 0 0 0 0 0 0 2 2 6 6 7 15 0 0 0 0 0 0 0 0 0 0 0 0 0 1 0 1 0 1 0 0 0 0 0 0 0 1 0 1 0 1 0 0 0 0 0 0 1 1 0 2 0 3 0 1 0 1 0 1 0 0 0 1 0 1 0 0 0 0 0 0 0 0 0 0 0 0 0 0 0 0 0 0 0 0 0 0 0 0 0 0 0 0 0 0-1 2-4 3-18 3 0 0 0 0 0 0-5 0-12 0-22 0-17 0-26 16-29 23 4 22 16 38 35 49 0 0 0 0 0 0 4 2-45 0-68-28-20 5-37 4-52 1-3 0-6 0-11 1-10 9-24 26-25 46 0 0 0 0 0 0 0 0 0 0 0 0 0 0-30-23-26-87 0-1 0-2 0-3-8-11-12-20-12-22-8-15-15-37-21-71 0 0 4 13 13 28-7-19-11-48-9-93 0 0 1 10 4 24 2-27 11-61 34-101 45-77 113-116 189-122 13-1 27-1 40 0 2 0 3 1 4 1 16 1 31 3 47 7 212 51 189 308 189 308z"/>
<glyph glyph-name="ie" unicode="&#57364;" d="M367 198l118 0c1 8 1 16 1 25 0 40-10 77-29 110 19 51 19 95-7 122-25 24-92 20-167-13-5 0-11 1-16 1-103 0-190-71-214-167 33 41 67 71 112 93-4-4-28-27-32-32-120-119-158-276-117-316 31-31 87-26 151 5 30-15 64-23 100-23 96 0 178 62 208 148l-119 0c-17-30-49-50-85-50-37 0-69 20-86 50-7 14-11 30-11 46l0 1z m-193 58c3 48 43 87 93 87 49 0 89-39 92-87z m274 174c17-17 17-48 2-87-24 38-60 67-102 84 45 19 82 22 100 3z m-401-402c-22 22-15 67 12 121 18-48 51-89 94-115-48-21-87-25-106-6z"/>
<glyph glyph-name="cancel" unicode="&#97;" d="M368 512l-224 0-144-144 0-224 144-144 224 0 144 144 0 224z m32-352l-48-48-96 96-96-96-48 48 96 96-96 96 48 48 96-96 96 96 48-48-96-96z"/>
<glyph glyph-name="edge" unicode="&#98;" d="M120 475c41 25 88 38 135 37 168 0 257-124 257-220 0-32-13-63-36-87-23-23-54-36-87-37-75 0-91 23-91 32 0 4 1 6 5 10l1 1 0 1c11 12 16 27 16 42 0 79-82 143-184 143-38 0-75-9-108-27 27 57 83 97 92 104 1 0 0 1 0 1z m16-319c-2-30 4-60 16-87 14-26 33-51 57-69-60 11-112 44-150 89-38 47-59 105-59 165 0 51 62 94 136 94 37 1 72-10 102-32l-4-1c-51-18-98-91-98-159z m334-44l-1 0c-12-19-26-35-42-50-31-28-68-45-109-50-18 0-37 4-54 12-25 10-47 30-61 53-15 24-21 52-19 79-1 21 5 41 15 59 14-33 37-62 67-81 30-20 66-30 102-29 31 0 62 7 90 21l2 1c4 2 8 4 11 0 5-5 2-10-1-14 0-1 0-1 0-1z"/>
</font>
</defs>
</svg>
